<svg width="37" height="30" viewBox="0 0 37 30" fill="none" xmlns="http://www.w3.org/2000/svg">
<path d="M33.3 30H24.05C24.05 29.375 24.0269 28.75 23.9806 28.125C23.9344 27.5 23.865 26.875 23.7725 26.25H33.3V3.75H3.7V5.90625C3.08333 5.8125 2.46667 5.74219 1.85 5.69531C1.23333 5.64844 0.616667 5.625 0 5.625V3.75C0 2.71875 0.362292 1.83594 1.08688 1.10156C1.81146 0.367187 2.6825 0 3.7 0H33.3C34.3175 0 35.1885 0.367187 35.9131 1.10156C36.6377 1.83594 37 2.71875 37 3.75V26.25C37 27.2812 36.6377 28.1641 35.9131 28.8984C35.1885 29.6328 34.3175 30 33.3 30ZM0 30V24.375C1.54167 24.375 2.85208 24.9219 3.93125 26.0156C5.01042 27.1094 5.55 28.4375 5.55 30H0ZM9.25 30C9.25 27.4063 8.34813 25.1953 6.54438 23.3672C4.74063 21.5391 2.55917 20.625 0 20.625V16.875C3.6075 16.875 6.66771 18.1484 9.18063 20.6953C11.6935 23.2422 12.95 26.3438 12.95 30H9.25ZM16.65 30C16.65 27.6562 16.2106 25.4609 15.3319 23.4141C14.4531 21.3672 13.266 19.5859 11.7706 18.0703C10.2752 16.5547 8.51771 15.3516 6.49813 14.4609C4.47854 13.5703 2.3125 13.125 0 13.125V9.375C2.80583 9.375 5.44208 9.91406 7.90875 10.9922C10.3754 12.0703 12.5338 13.5469 14.3838 15.4219C16.2338 17.2969 17.6906 19.4844 18.7544 21.9844C19.8181 24.4844 20.35 27.1562 20.35 30H16.65Z" fill="#E85D04"/>
</svg>
