<svg width="38" height="30" viewBox="0 0 38 30" fill="none" xmlns="http://www.w3.org/2000/svg">
<path d="M0 30V26.25H19V30H0ZM5.7 24.375C4.655 24.375 3.76042 24.0078 3.01625 23.2734C2.27208 22.5391 1.9 21.6562 1.9 20.625V3.75C1.9 2.71875 2.27208 1.83594 3.01625 1.10156C3.76042 0.367188 4.655 0 5.7 0H32.3C33.345 0 34.2396 0.367188 34.9837 1.10156C35.7279 1.83594 36.1 2.71875 36.1 3.75H5.7V20.625H19V24.375H5.7ZM34.2 26.25V11.25H26.6V26.25H34.2ZM25.65 30C24.8583 30 24.1854 29.7266 23.6313 29.1797C23.0771 28.6328 22.8 27.9688 22.8 27.1875V10.3125C22.8 9.53125 23.0771 8.86719 23.6313 8.32031C24.1854 7.77344 24.8583 7.5 25.65 7.5H35.15C35.9417 7.5 36.6146 7.77344 37.1688 8.32031C37.7229 8.86719 38 9.53125 38 10.3125V27.1875C38 27.9688 37.7229 28.6328 37.1688 29.1797C36.6146 29.7266 35.9417 30 35.15 30H25.65ZM30.4 15.9375C30.8117 15.9375 31.1521 15.7969 31.4212 15.5156C31.6904 15.2344 31.825 14.9062 31.825 14.5312C31.825 14.125 31.6904 13.7891 31.4212 13.5234C31.1521 13.2578 30.8117 13.125 30.4 13.125C30.02 13.125 29.6875 13.2578 29.4025 13.5234C29.1175 13.7891 28.975 14.125 28.975 14.5312C28.975 14.9062 29.1175 15.2344 29.4025 15.5156C29.6875 15.7969 30.02 15.9375 30.4 15.9375Z" fill="#121212"/>
</svg>
